<svg xmlns="http://www.w3.org/2000/svg" width="1280" height="420" viewBox="0 0 1280 420">
  <defs>
    <linearGradient id="bg" x1="0" y1="0" x2="1" y2="1">
      <stop offset="0%" stop-color="#0B1220"/>
      <stop offset="55%" stop-color="#172554"/>
      <stop offset="100%" stop-color="#0E7490"/>
    </linearGradient>
    <linearGradient id="accent" x1="0" y1="0" x2="1" y2="1">
      <stop offset="0%" stop-color="#22D3EE"/>
      <stop offset="100%" stop-color="#34D399"/>
    </linearGradient>
  </defs>

  <rect x="0" y="0" width="1280" height="420" fill="url(#bg)"/>
  <rect x="36" y="30" width="1208" height="360" rx="24" fill="#020617" fill-opacity="0.35" stroke="#334155"/>

  <g opacity="0.3" stroke="#7DD3FC">
    <line x1="70" y1="350" x2="570" y2="350"/>
    <line x1="70" y1="322" x2="570" y2="322"/>
    <line x1="70" y1="294" x2="570" y2="294"/>
    <line x1="70" y1="266" x2="570" y2="266"/>
  </g>

  <rect x="72" y="70" width="690" height="178" rx="18" fill="#020617" fill-opacity="0.72" stroke="#475569"/>
  <text x="104" y="132" fill="#F8FAFC" font-family="Segoe UI, Arial, sans-serif" font-size="48" font-weight="700">
    Autonomous Retail Shrinkage Agent
  </text>
  <text x="104" y="176" fill="#A5F3FC" font-family="Segoe UI, Arial, sans-serif" font-size="24">
    Vision + POS Intelligence for Real-Time Incident Response
  </text>
  <text x="104" y="212" fill="#CBD5E1" font-family="Segoe UI, Arial, sans-serif" font-size="18">
    Detect -> Validate -> Clip -> Alert
  </text>

  <rect x="810" y="74" width="392" height="136" rx="16" fill="#0F172A" stroke="#22D3EE"/>
  <text x="840" y="112" fill="#CCFBF1" font-family="Segoe UI, Arial, sans-serif" font-size="22" font-weight="600">Incident Alert</text>
  <text x="840" y="140" fill="#E2E8F0" font-family="Segoe UI, Arial, sans-serif" font-size="16">Event: Suspected concealment</text>
  <text x="840" y="164" fill="#E2E8F0" font-family="Segoe UI, Arial, sans-serif" font-size="16">Confidence: 0.92  |  POS Match: No</text>
  <rect x="840" y="176" width="132" height="24" rx="12" fill="url(#accent)"/>
  <text x="871" y="193" fill="#052E2B" font-family="Segoe UI, Arial, sans-serif" font-size="13" font-weight="700">ESCALATED</text>

  <rect x="810" y="234" width="392" height="124" rx="16" fill="#0B1324" stroke="#1E293B"/>
  <text x="840" y="268" fill="#BFDBFE" font-family="Consolas, monospace" font-size="17">pipeline:</text>
  <text x="840" y="292" fill="#93C5FD" font-family="Consolas, monospace" font-size="15">vision_event -> pos_check</text>
  <text x="840" y="314" fill="#86EFAC" font-family="Consolas, monospace" font-size="15">if mismatch: clip + slack_notify</text>
  <text x="840" y="336" fill="#C4B5FD" font-family="Consolas, monospace" font-size="15">incident_id: inc_20260320_1015</text>

  <g>
    <rect x="74" y="276" width="128" height="88" rx="10" fill="none" stroke="#38BDF8"/>
    <rect x="224" y="276" width="128" height="88" rx="10" fill="none" stroke="#38BDF8"/>
    <rect x="374" y="276" width="128" height="88" rx="10" fill="none" stroke="#38BDF8"/>
    <rect x="524" y="276" width="128" height="88" rx="10" fill="none" stroke="#38BDF8"/>
    <path d="M202 320H224M352 320H374M502 320H524M652 320H760" stroke="#22D3EE" stroke-width="2"/>
    <circle cx="760" cy="320" r="4" fill="#22D3EE"/>
  </g>
</svg>
